<?xml version="1.0" encoding="utf-8"?>
<!-- Generator: Adobe Illustrator 25.2.0, SVG Export Plug-In . SVG Version: 6.00 Build 0)  -->
<svg version="1.1" id="Capa_1" xmlns="http://www.w3.org/2000/svg" xmlns:xlink="http://www.w3.org/1999/xlink" x="0px" y="0px"
	 viewBox="0 0 279.2 279.2" style="enable-background:new 0 0 279.2 279.2;" xml:space="preserve">
<style type="text/css">
	.st0{fill:#F2388F;}
</style>
<path class="st0" d="M275.6,64.9c0-0.1,0-0.2,0-0.2c0-0.3-0.1-0.6-0.2-0.8v-0.1c-0.1-0.3-0.2-0.6-0.3-0.9c0,0,0-0.1-0.1-0.1
	c-0.1-0.3-0.3-0.5-0.4-0.7l-0.1-0.1c-0.2-0.3-0.4-0.5-0.6-0.8l-0.1-0.1c-0.2-0.2-0.4-0.4-0.6-0.6c-0.1,0-0.1-0.1-0.2-0.1
	c-0.2-0.2-0.5-0.4-0.8-0.6l-0.1-0.1c-0.3-0.2-0.5-0.3-0.8-0.4h-0.1L142.7,0.7c-2-0.9-4.2-0.9-6.2,0L47.6,41
	c-3.8,1.7-5.4,6.2-3.7,9.9c1.7,3.8,6.2,5.4,9.9,3.7l85.8-38.9l110.2,50l-110.2,48.4L14,59l0,0c-0.2-0.1-0.4-0.1-0.6-0.2
	c0,0-0.1,0-0.1-0.1c-0.2,0-0.3-0.1-0.5-0.1c-0.1,0-0.2,0-0.3-0.1c-0.1,0-0.2,0-0.3-0.1c-0.1,0-0.3-0.1-0.4-0.1c-0.1,0-0.1,0-0.2,0
	c-0.2,0-0.4,0-0.5,0l0,0c-0.1,0-0.1,0-0.2,0c-0.2,0-0.3,0-0.5,0c-0.1,0-0.2,0-0.4,0c-0.1,0-0.2,0-0.3,0.1c-0.2,0-0.3,0.1-0.5,0.1
	c-0.1,0-0.2,0-0.2,0.1c-0.2,0-0.3,0.1-0.5,0.2c-0.1,0-0.1,0-0.2,0.1C8.1,59,7.9,59,7.8,59.1c-0.1,0-0.1,0.1-0.2,0.1
	c-0.1,0.1-0.3,0.1-0.4,0.2c-0.1,0-0.2,0.1-0.2,0.1c-0.1,0.1-0.2,0.2-0.3,0.2c-0.1,0.1-0.2,0.1-0.3,0.2c-0.1,0.1-0.2,0.2-0.3,0.2
	c-0.1,0.1-0.2,0.2-0.3,0.3c-0.1,0.1-0.2,0.2-0.2,0.2c-0.1,0.1-0.2,0.2-0.3,0.3c-0.1,0.1-0.1,0.2-0.2,0.3S5,61.4,4.9,61.5
	s-0.2,0.2-0.2,0.4c0,0.1-0.1,0.2-0.1,0.2c-0.1,0.2-0.2,0.3-0.2,0.5c0,0,0,0.1-0.1,0.1l0,0C4,63.1,4,63.3,3.9,63.4c0,0,0,0.1-0.1,0.1
	c0,0.2-0.1,0.3-0.1,0.5c0,0.1,0,0.2-0.1,0.3c0,0.1,0,0.2,0,0.3c0,0.2-0.1,0.3-0.1,0.5c0,0.1,0,0.1,0,0.2c0,0.2,0,0.4,0,0.6l0,0
	v146.4c0,2.9,1.7,5.6,4.4,6.8l128.6,59.4l0,0c0.1,0,0.1,0,0.2,0.1c0.2,0.1,0.5,0.2,0.8,0.3c0.1,0,0.2,0,0.3,0.1
	c0.2,0.1,0.5,0.1,0.7,0.2c0.1,0,0.1,0,0.2,0c0.3,0,0.6,0.1,1,0.1h0.1c0.3,0,0.6,0,0.8-0.1c0.1,0,0.2,0,0.3,0c0.2,0,0.4-0.1,0.7-0.1
	c0.1,0,0.2-0.1,0.3-0.1c0.2-0.1,0.5-0.2,0.7-0.3c0.1,0,0.1,0,0.2-0.1l0,0l128.6-59.4c2.7-1.2,4.4-3.9,4.4-6.8V65.9
	C275.7,65.5,275.7,65.2,275.6,64.9z M147.1,260V159.3c0-4.1-3.4-7.5-7.5-7.5s-7.5,3.4-7.5,7.5V260L18.5,207.5V77.4l118.1,51.9
	c1,0.4,2,0.6,3,0.6s2.1-0.2,3-0.6l118.1-51.9v130.1L147.1,260z"/>
</svg>
